<svg width="48" height="48" viewBox="0 0 48 48" fill="none" xmlns="http://www.w3.org/2000/svg">
<circle cx="24" cy="24" r="24" fill="white"/>
<circle cx="24" cy="24.7572" r="17" stroke="black" stroke-width="2"/>
<path d="M31.7428 24.7571C31.7428 29.2345 28.059 32.8876 23.4857 32.8876C18.9123 32.8876 15.2285 29.2345 15.2285 24.7571C15.2285 20.2798 18.9123 16.6267 23.4857 16.6267C28.059 16.6267 31.7428 20.2798 31.7428 24.7571Z" stroke="black" stroke-width="2"/>
<path d="M36.6 13.0181L36.3429 25.0181C36 29.192 33.2571 37.5398 24 37.5398" stroke="black" stroke-width="1.5"/>
<path d="M10.5 35L10.8857 23.9746C11.2285 19.8007 13.9714 11.4529 23.2285 11.4529" stroke="black" stroke-width="1.5"/>
<path d="M14.7427 39.6267C14.7427 39.6267 14.7427 31.677 14.7427 26.5832C14.657 25.2789 14.7942 22.3572 16.0285 21.105" stroke="black" stroke-width="1.5"/>
<path d="M32.2858 9.99999C32.2858 9.99999 32.2858 17.9497 32.2858 23.0435C32.3715 24.3478 32.2344 27.2696 31.0001 28.5217" stroke="black" stroke-width="1.5"/>
</svg>
