<svg width="175" height="69" viewBox="0 0 175 69" fill="none" xmlns="http://www.w3.org/2000/svg">
<path d="M68.5 34.5C68.5 52.7051 53.522 67.5 35 67.5C16.478 67.5 1.5 52.7051 1.5 34.5C1.5 16.2949 16.478 1.5 35 1.5C53.522 1.5 68.5 16.2949 68.5 34.5Z" stroke="black" stroke-width="3"/>
<path d="M50.5 34.5C50.5 43.297 43.1528 50.5 34 50.5C24.8472 50.5 17.5 43.297 17.5 34.5C17.5 25.703 24.8472 18.5 34 18.5C43.1528 18.5 50.5 25.703 50.5 34.5Z" stroke="black" stroke-width="3"/>
<path d="M59.5 12L59 35C58.3333 43 53 59 35 59" stroke="black" stroke-width="3"/>
<path d="M9 56L9.5 33C10.1667 25 15.5 9 33.5 9" stroke="black" stroke-width="3"/>
<path d="M17 63C17 63 17 47.7631 17 38C16.8333 35.5 17.1 29.9 19.5 27.5" stroke="black" stroke-width="2.5"/>
<path d="M50.9842 5C50.9842 5 50.9842 19.0223 50.9842 28.6479C51.0499 31.1127 50.9449 36.6338 50 39" stroke="black" stroke-width="2.5"/>
<path d="M80 18.5V52" stroke="black" stroke-width="3"/>
<path d="M98 52V26C98.1667 23.5 99.6834 19 104.5 19C109.5 19 111 23 111 26V52" stroke="black" stroke-width="3"/>
<path d="M129 52V26C129.167 23.5 130.683 19 135.5 19C140.5 19 142 23 142 26V52" stroke="black" stroke-width="3"/>
<path d="M158 27C158 20.6 163 19.3333 165.5 19.5C171.1 19.5 172.667 24.5 172.5 27V44C172.667 46.5 171.5 51.5 165.5 51.5C159.5 51.5 158 46.5 158 44V27Z" stroke="black" stroke-width="3"/>
</svg>
